<svg width="174" height="40" viewBox="0 0 174 40" fill="none" xmlns="http://www.w3.org/2000/svg">
<path fill-rule="evenodd" clip-rule="evenodd" d="M30.7292 12.6426H15.6436C11.9952 12.6426 9.70703 15.2262 9.70703 18.8837V28.7515C9.70703 32.409 11.9826 34.9925 15.6436 34.9925H30.7273C34.3902 34.9925 36.6675 32.409 36.6675 28.7515V18.8837C36.6675 15.2262 34.3902 12.6426 30.7292 12.6426Z" stroke="white" stroke-width="2.5" stroke-linecap="round" stroke-linejoin="round"/>
<path d="M15.6201 20.0801H30.7453" stroke="white" stroke-width="2.5" stroke-linecap="round" stroke-linejoin="round"/>
<path d="M30.1417 12.6401L27.4987 8.23492C25.605 5.1162 22.3295 4.064 19.1857 5.95938L6.27107 13.7319C3.13972 15.6129 2.50914 19.0055 4.3901 22.1495L9.49249 30.5922C9.73032 31.0012 9.99337 31.3687 10.2943 31.6983V31.711" stroke="white" stroke-width="2.5" stroke-linecap="round" stroke-linejoin="round"/>
<path d="M56.6033 15.0919H65.2573V31H62.4893V17.7644H56.6033V31H53.8353V17.7644H51.29V15.0919H53.8353V14.6146C53.8353 10.4149 56.1578 8.31501 60.803 8.31501C61.7363 8.31501 62.8286 8.45289 64.0801 8.72863V11.2421C62.6802 11.0724 61.5878 10.9876 60.803 10.9876C59.3395 10.9876 58.2683 11.2633 57.5896 11.8148C56.932 12.3663 56.6033 13.2996 56.6033 14.6146V15.0919ZM77.4198 14.6783C79.2863 14.6783 80.7817 15.2722 81.9059 16.46C83.0301 17.6266 83.5921 19.2174 83.5921 21.2324V31H80.8241V21.3915C80.8241 20.1188 80.4742 19.1219 79.7742 18.4008C79.0742 17.6796 78.1091 17.319 76.8789 17.319C75.4578 17.319 74.3336 17.7644 73.5064 18.6553C72.6792 19.5249 72.2656 20.8294 72.2656 22.5687V31H69.4975V15.0919H72.2656V17.3826C73.3685 15.5797 75.0866 14.6783 77.4198 14.6783ZM94.9331 31.4136C92.5363 31.4136 90.5425 30.6182 88.9517 29.0274C87.3609 27.4154 86.5655 25.4216 86.5655 23.0459C86.5655 20.6703 87.3609 18.6871 88.9517 17.0963C90.5425 15.4843 92.5363 14.6783 94.9331 14.6783C96.5027 14.6783 97.9133 15.0601 99.1647 15.8236C100.416 16.566 101.349 17.5735 101.965 18.8462L99.642 20.1825C99.2389 19.334 98.6132 18.6553 97.7648 18.1462C96.9376 17.6372 95.9937 17.3826 94.9331 17.3826C93.3423 17.3826 92.0061 17.9235 90.9243 19.0053C89.8638 20.1082 89.3335 21.4551 89.3335 23.0459C89.3335 24.6155 89.8638 25.9518 90.9243 27.0548C92.0061 28.1365 93.3423 28.6774 94.9331 28.6774C95.9937 28.6774 96.9482 28.4335 97.7966 27.9456C98.645 27.4366 99.292 26.7578 99.7374 25.9094L102.092 27.2775C101.392 28.5501 100.406 29.5577 99.1329 30.3C97.8602 31.0424 96.4603 31.4136 94.9331 31.4136ZM112.747 14.6783C114.614 14.6783 116.109 15.2722 117.233 16.46C118.357 17.6266 118.919 19.2174 118.919 21.2324V31H116.151V21.3915C116.151 20.1188 115.801 19.1219 115.101 18.4008C114.401 17.6796 113.436 17.319 112.206 17.319C110.785 17.319 109.661 17.7644 108.834 18.6553C108.006 19.5249 107.593 20.8294 107.593 22.5687V31H104.825V8.72863H107.593V17.3826C108.696 15.5797 110.414 14.6783 112.747 14.6783ZM138.055 24.3186H124.724C125 25.7185 125.647 26.8215 126.665 27.6275C127.683 28.4123 128.956 28.8047 130.483 28.8047C132.583 28.8047 134.11 28.0305 135.065 26.4821L137.419 27.8184C135.849 30.2152 133.516 31.4136 130.419 31.4136C127.917 31.4136 125.859 30.6288 124.247 29.0592C122.677 27.4472 121.893 25.4428 121.893 23.0459C121.893 20.6279 122.667 18.6341 124.215 17.0645C125.764 15.4737 127.768 14.6783 130.229 14.6783C132.562 14.6783 134.46 15.5055 135.924 17.1599C137.408 18.772 138.151 20.7446 138.151 23.0778C138.151 23.4808 138.119 23.8944 138.055 24.3186ZM130.229 17.2872C128.765 17.2872 127.535 17.7008 126.538 18.528C125.562 19.3553 124.958 20.4794 124.724 21.9006H135.351C135.118 20.437 134.534 19.3022 133.601 18.4962C132.668 17.6902 131.544 17.2872 130.229 17.2872ZM148.778 31.4136C146.382 31.4136 144.388 30.6182 142.797 29.0274C141.206 27.4154 140.411 25.4216 140.411 23.0459C140.411 20.6703 141.206 18.6871 142.797 17.0963C144.388 15.4843 146.382 14.6783 148.778 14.6783C150.348 14.6783 151.759 15.0601 153.01 15.8236C154.261 16.566 155.195 17.5735 155.81 18.8462L153.487 20.1825C153.084 19.334 152.458 18.6553 151.61 18.1462C150.783 17.6372 149.839 17.3826 148.778 17.3826C147.188 17.3826 145.851 17.9235 144.77 19.0053C143.709 20.1082 143.179 21.4551 143.179 23.0459C143.179 24.6155 143.709 25.9518 144.77 27.0548C145.851 28.1365 147.188 28.6774 148.778 28.6774C149.839 28.6774 150.793 28.4335 151.642 27.9456C152.49 27.4366 153.137 26.7578 153.583 25.9094L155.937 27.2775C155.237 28.5501 154.251 29.5577 152.978 30.3C151.706 31.0424 150.306 31.4136 148.778 31.4136ZM164.27 22.7914L172.128 31H168.692L161.438 23.4595V31H158.67V8.72863H161.438V22.1233L168.31 15.0919H171.874L164.27 22.7914Z" fill="white"/>
</svg>
